<?xml version="1.0"?>
<svg xmlns="http://www.w3.org/2000/svg" xmlns:xlink="http://www.w3.org/1999/xlink" xmlns:svgjs="http://svgjs.com/svgjs" version="1.1" width="512" height="512" x="0" y="0" viewBox="0 0 24 24" style="enable-background:new 0 0 512 512" xml:space="preserve"><g><path xmlns="http://www.w3.org/2000/svg" d="m23.25 15h-2.5c-.414 0-.75-.336-.75-.75v-4.5c0-.414.336-.75.75-.75h2.5c.414 0 .75.336.75.75v4.5c0 .414-.336.75-.75.75z" fill="#607d8b" data-original="#607d8b" style=""/><path xmlns="http://www.w3.org/2000/svg" d="m3.25 15h-2.5c-.414 0-.75-.336-.75-.75v-4.5c0-.414.336-.75.75-.75h2.5c.414 0 .75.336.75.75v4.5c0 .414-.336.75-.75.75z" fill="#607d8b" data-original="#607d8b" style=""/><path xmlns="http://www.w3.org/2000/svg" d="m18.75 18h-3.014c-1.048 0-1.99-.583-2.46-1.52l-.158-.317c-.217-.432-.635-.69-1.118-.69s-.901.258-1.118.691l-.158.316c-.47.937-1.412 1.52-2.46 1.52h-3.014c-1.517 0-2.75-1.233-2.75-2.75v-6.5c0-1.517 1.233-2.75 2.75-2.75h13.5c1.517 0 2.75 1.233 2.75 2.75v6.5c0 1.517-1.233 2.75-2.75 2.75z" fill="#00bcd4" data-original="#00bcd4" style=""/><path xmlns="http://www.w3.org/2000/svg" d="m2.5 9h-1.75c-.414 0-.75.336-.75.75v4.5c0 .414.336.75.75.75h1.75z" fill="#546d79" data-original="#546d79" style=""/><path xmlns="http://www.w3.org/2000/svg" d="m12 6h-6.75c-1.517 0-2.75 1.233-2.75 2.75v.25 6 .25c0 1.517 1.233 2.75 2.75 2.75h3.014c1.048 0 1.99-.583 2.46-1.521l.158-.316c.217-.433.635-.691 1.118-.691z" fill="#00a4b9" data-original="#00a4b9" style=""/><path xmlns="http://www.w3.org/2000/svg" d="m12 4c-.553 0-1-.448-1-1v-2c0-.552.447-1 1-1s1 .448 1 1v2c0 .552-.447 1-1 1z" fill="#607d8b" data-original="#607d8b" style=""/><path xmlns="http://www.w3.org/2000/svg" d="m12 24c-.553 0-1-.448-1-1v-2c0-.552.447-1 1-1s1 .448 1 1v2c0 .552-.447 1-1 1z" fill="#607d8b" data-original="#607d8b" style=""/><path xmlns="http://www.w3.org/2000/svg" d="m12 0c-.553 0-1 .448-1 1v2c0 .552.447 1 1 1z" fill="#546d79" data-original="#546d79" style=""/><path xmlns="http://www.w3.org/2000/svg" d="m12 20c-.553 0-1 .448-1 1v2c0 .552.447 1 1 1z" fill="#546d79" data-original="#546d79" style=""/><path xmlns="http://www.w3.org/2000/svg" d="m8.25 14h-1.5c-.965 0-1.75-.785-1.75-1.75v-1.5c0-.965.785-1.75 1.75-1.75h1.5c.965 0 1.75.785 1.75 1.75v1.5c0 .965-.785 1.75-1.75 1.75z" fill="#ffffff" data-original="#ffffff" style=""/><path xmlns="http://www.w3.org/2000/svg" d="m17.25 14h-1.5c-.965 0-1.75-.785-1.75-1.75v-1.5c0-.965.785-1.75 1.75-1.75h1.5c.965 0 1.75.785 1.75 1.75v1.5c0 .965-.785 1.75-1.75 1.75z" fill="#ffffff" data-original="#ffffff" style=""/><path xmlns="http://www.w3.org/2000/svg" d="m7.5 9h-.75c-.965 0-1.75.785-1.75 1.75v1.5c0 .965.785 1.75 1.75 1.75h.75z" fill="#dedede" data-original="#dedede" style=""/><path xmlns="http://www.w3.org/2000/svg" d="m16.5 9h-.75c-.965 0-1.75.785-1.75 1.75v1.5c0 .965.785 1.75 1.75 1.75h.75z" fill="#dedede" data-original="#dedede" style=""/><path xmlns="http://www.w3.org/2000/svg" d="m2.293 3.707-2-2c-.391-.391-.391-1.023 0-1.414s1.023-.391 1.414 0l2 2c.391.391.391 1.023 0 1.414s-1.023.391-1.414 0z" fill="#607d8b" data-original="#607d8b" style=""/><path xmlns="http://www.w3.org/2000/svg" d="m22.293 23.707-2-2c-.391-.391-.391-1.023 0-1.414s1.023-.391 1.414 0l2 2c.391.391.391 1.023 0 1.414s-1.023.391-1.414 0z" fill="#607d8b" data-original="#607d8b" style=""/><path xmlns="http://www.w3.org/2000/svg" d="m.293.293c-.391.391-.391 1.023 0 1.414l2 2c.195.195.451.293.707.293s.512-.098.707-.293z" fill="#546d79" data-original="#546d79" style=""/><path xmlns="http://www.w3.org/2000/svg" d="m20.293 20.293c-.391.391-.391 1.023 0 1.414l2 2c.195.195.451.293.707.293.256 0 .512-.098.707-.293z" fill="#546d79" data-original="#546d79" style=""/><path xmlns="http://www.w3.org/2000/svg" d="m20.293 3.707c-.391-.391-.391-1.023 0-1.414l2-2c.391-.391 1.023-.391 1.414 0s.391 1.023 0 1.414l-2 2c-.391.391-1.023.391-1.414 0z" fill="#607d8b" data-original="#607d8b" style=""/><path xmlns="http://www.w3.org/2000/svg" d="m.293 23.707c-.391-.391-.391-1.023 0-1.414l2-2c.391-.391 1.023-.391 1.414 0s.391 1.023 0 1.414l-2 2c-.391.391-1.023.391-1.414 0z" fill="#607d8b" data-original="#607d8b" style=""/><g xmlns="http://www.w3.org/2000/svg" fill="#546d79"><path d="m23.707.293-3.414 3.414c.195.195.451.293.707.293s.512-.098.707-.293l2-2c.391-.391.391-1.023 0-1.414z" fill="#546d79" data-original="#546d79" style=""/><path d="m3.707 20.293-3.414 3.414c.195.195.451.293.707.293s.512-.098.707-.293l2-2c.391-.391.391-1.023 0-1.414z" fill="#546d79" data-original="#546d79" style=""/></g></g></svg>
